<?xml version="1.0" encoding="utf-8"?>
<!-- Generator: Adobe Illustrator 23.0.5, SVG Export Plug-In . SVG Version: 6.00 Build 0)  -->
<svg version="1.1" id="Layer_1" xmlns="http://www.w3.org/2000/svg" xmlns:xlink="http://www.w3.org/1999/xlink" x="0px" y="0px"
	 width="512px" height="512px" viewBox="0 0 512 512" style="enable-background:new 0 0 512 512;" xml:space="preserve">
<style type="text/css">
	.st0{fill:#6A7BD3;}
</style>
<path class="st0" d="M302.9,346.9c-62.1-26.3-111.5-75.8-137.7-138l72.5-72.7L104.3,2.6L36.6,70.2C12.9,94.1-0.3,126.4,0,160
	c0,154.6,197.4,352,352,352c33.6,0.3,65.9-12.9,89.7-36.6l67.6-67.6L375.7,274.1L302.9,346.9z M411.6,445.2
	c-15.8,15.7-37.3,24.4-59.6,24.1C219,469.3,42.7,293,42.7,160c-0.3-22.3,8.4-43.7,24.1-59.6l37.5-37.5l73.3,73.3L115,198.9l5.2,13.1
	c31.1,83.3,96.9,148.9,180.2,180l12.9,4.9l62.4-62.4l73.3,73.3L411.6,445.2z M298.7,42.7V0C416.4,0.1,511.9,95.6,512,213.3h-42.7
	C469.2,119.1,392.9,42.8,298.7,42.7z M298.7,128V85.3c70.7,0.1,127.9,57.3,128,128H384C384,166.2,345.8,128,298.7,128z"/>
</svg>
